ffmpeg started on 2016-12-05 at 21:10:13
Report written to "Output/x264/results/ffmpeg/sintelfaster12000k.log"
Command line:
Tools/ffmpeg/ffmpeg -benchmark -y -i Input/y4m/sintel.y4m -c:v libx264 -preset faster -b:v 12000k -an Output/x264/encoded/sintelfaster12000k.mkv
ffmpeg version N-82227-gdb23fde Copyright (c) 2000-2016 the FFmpeg developers
  built with gcc 5.4.0 (Ubuntu 5.4.0-6ubuntu1~16.04.2) 20160609
  configuration: --prefix=/home/jaroslav/ffmpeg_build --pkg-config-flags=--static --extra-cflags=-I/home/jaroslav/ffmpeg_build/include --extra-ldflags=-L/home/jaroslav/ffmpeg_build/lib --bindir=/home/jaroslav/bin --enable-gpl --enable-libass --enable-libfdk-aac --enable-libfreetype --enable-libmp3lame --enable-libopus --enable-libtheora --enable-libvorbis --enable-libvpx --enable-libx264 --enable-libx265 --enable-nvenc --enable-libmfx --enable-libxvid --enable-libgsm --enable-libopencore-amrnb --enable-version3 --enable-nonfree
  libavutil      55. 35.100 / 55. 35.100
  libavcodec     57. 66.101 / 57. 66.101
  libavformat    57. 57.100 / 57. 57.100
  libavdevice    57.  2.100 / 57.  2.100
  libavfilter     6. 66.100 /  6. 66.100
  libswscale      4.  3.100 /  4.  3.100
  libswresample   2.  4.100 /  2.  4.100
  libpostproc    54.  2.100 / 54.  2.100
Input #0, yuv4mpegpipe, from 'Input/y4m/sintel.y4m':
  Duration: 00:00:20.83, start: 0.000000, bitrate: 2057307 kb/s
    Stream #0:0: Video: rawvideo (I420 / 0x30323449), yuv420p(progressive), 4096x1744, SAR 1:1 DAR 256:109, 24 fps, 24 tbr, 24 tbn, 24 tbc
[libx264 @ 0x2c8c1c0] using SAR=1/1
[libx264 @ 0x2c8c1c0] using cpu capabilities: MMX2 SSE2Fast SSSE3 SSE4.2 AVX FMA3 AVX2 LZCNT BMI2
[libx264 @ 0x2c8c1c0] profile High, level 5.1
[libx264 @ 0x2c8c1c0] 264 - core 148 - H.264/MPEG-4 AVC codec - Copyleft 2003-2016 - http://www.videolan.org/x264.html - options: cabac=1 ref=2 deblock=1:0:0 analyse=0x3:0x113 me=hex subme=4 psy=1 psy_rd=1.00:0.00 mixed_ref=0 me_range=16 chroma_me=1 trellis=1 8x8dct=1 cqm=0 deadzone=21,11 fast_pskip=1 chroma_qp_offset=0 threads=6 lookahead_threads=1 sliced_threads=0 nr=0 decimate=1 interlaced=0 bluray_compat=0 constrained_intra=0 bframes=3 b_pyramid=2 b_adapt=1 b_bias=0 direct=1 weightb=1 open_gop=0 weightp=1 keyint=250 keyint_min=24 scenecut=40 intra_refresh=0 rc_lookahead=20 rc=abr mbtree=1 bitrate=12000 ratetol=1.0 qcomp=0.60 qpmin=0 qpmax=69 qpstep=4 ip_ratio=1.40 aq=1:1.00
Output #0, matroska, to 'Output/x264/encoded/sintelfaster12000k.mkv':
  Metadata:
    encoder         : Lavf57.57.100
    Stream #0:0: Video: h264 (libx264) (H264 / 0x34363248), yuv420p, 4096x1744 [SAR 1:1 DAR 256:109], q=-1--1, 12000 kb/s, 24 fps, 1k tbn, 24 tbc
    Metadata:
      encoder         : Lavc57.66.101 libx264
    Side data:
      cpb: bitrate max/min/avg: 0/0/12000000 buffer size: 0 vbv_delay: -1
Stream mapping:
  Stream #0:0 -> #0:0 (rawvideo (native) -> h264 (libx264))
Press [q] to stop, [?] for help
frame=   10 fps=0.0 q=0.0 size=       0kB time=00:00:00.00 bitrate=N/A speed=   0x    frame=   19 fps= 18 q=0.0 size=       0kB time=00:00:00.00 bitrate=N/A speed=   0x    frame=   27 fps= 11 q=0.0 size=       0kB time=00:00:00.00 bitrate=N/A speed=   0x    frame=   31 fps= 10 q=24.0 size=       1kB time=-00:00:00.08 bitrate=N/A speed=N/A    frame=   35 fps=9.5 q=27.0 size=       1kB time=00:00:00.08 bitrate=  69.8kbits/s speed=0.0227x    frame=   38 fps=8.8 q=41.0 size=       1kB time=00:00:00.20 bitrate=  28.1kbits/s speed=0.0487x    frame=   44 fps=5.7 q=40.0 size=       1kB time=00:00:00.45 bitrate=  12.8kbits/s speed=0.06x    frame=   45 fps=3.8 q=40.0 size=       1kB time=00:00:00.50 bitrate=  11.7kbits/s speed=0.0428x    frame=   51 fps=4.1 q=40.0 size=       1kB time=00:00:00.75 bitrate=   7.8kbits/s speed=0.0611x    frame=   58 fps=4.5 q=40.0 size=       1kB time=00:00:01.04 bitrate=   5.6kbits/s speed=0.0815x    frame=   66 fps=4.9 q=39.0 size=       1kB time=00:00:01.37 bitrate=   4.3kbits/s speed=0.103x    frame=   75 fps=5.4 q=38.0 size=       1kB time=00:00:01.75 bitrate=   3.3kbits/s speed=0.126x    frame=   82 fps=5.7 q=37.0 size=       1kB time=00:00:02.04 bitrate=   2.9kbits/s speed=0.142x    frame=   90 fps=6.0 q=37.0 size=       1kB time=00:00:02.37 bitrate=   2.5kbits/s speed=0.159x    frame=   96 fps=6.2 q=37.0 size=       1kB time=00:00:02.62 bitrate=   2.2kbits/s speed=0.169x    frame=  102 fps=6.4 q=37.0 size=    5141kB time=00:00:02.87 bitrate=14644.6kbits/s speed=0.18x    frame=  110 fps=6.6 q=36.0 size=    5141kB time=00:00:03.20 bitrate=13124.9kbits/s speed=0.194x    frame=  116 fps=6.8 q=36.0 size=    5141kB time=00:00:03.45 bitrate=12176.3kbits/s speed=0.203x    frame=  122 fps=6.9 q=34.0 size=    5141kB time=00:00:03.70 bitrate=11355.6kbits/s speed=0.211x    frame=  131 fps=7.2 q=35.0 size=    6384kB time=00:00:04.08 bitrate=12805.3kbits/s speed=0.225x    frame=  136 fps=7.3 q=35.0 size=    6384kB time=00:00:04.29 bitrate=12181.9kbits/s speed=0.229x    frame=  144 fps=7.5 q=35.0 size=    6384kB time=00:00:04.62 bitrate=11305.0kbits/s speed=0.24x    frame=  152 fps=7.6 q=35.0 size=    6384kB time=00:00:04.95 bitrate=10545.8kbits/s speed=0.248x    frame=  159 fps=7.8 q=35.0 size=    6384kB time=00:00:05.25 bitrate=9959.4kbits/s speed=0.256x    frame=  166 fps=7.9 q=35.0 size=    6384kB time=00:00:05.54 bitrate=9434.8kbits/s speed=0.264x    frame=  175 fps=8.1 q=35.0 size=    6384kB time=00:00:05.91 bitrate=8836.9kbits/s speed=0.273x    frame=  183 fps=8.2 q=34.0 size=    6384kB time=00:00:06.25 bitrate=8366.2kbits/s speed=0.28x    frame=  193 fps=8.4 q=34.0 size=    9522kB time=00:00:06.66 bitrate=11698.2kbits/s speed=0.292x    frame=  200 fps=8.5 q=34.0 size=    9522kB time=00:00:06.95 bitrate=11209.0kbits/s speed=0.297x    frame=  207 fps=8.7 q=34.0 size=    9522kB time=00:00:07.25 bitrate=10757.6kbits/s speed=0.303x    frame=  214 fps=8.8 q=34.0 size=   10849kB time=00:00:07.54 bitrate=11782.3kbits/s speed=0.309x    frame=  220 fps=8.8 q=34.0 size=   10849kB time=00:00:07.79 bitrate=11404.3kbits/s speed=0.312x    frame=  227 fps=8.9 q=33.0 size=   10849kB time=00:00:08.08 bitrate=10993.8kbits/s speed=0.317x    frame=  236 fps=9.0 q=33.0 size=   10849kB time=00:00:08.45 bitrate=10506.4kbits/s speed=0.324x    frame=  244 fps=9.1 q=33.0 size=   10849kB time=00:00:08.79 bitrate=10107.3kbits/s speed=0.329x    frame=  249 fps=9.1 q=33.0 size=   10849kB time=00:00:09.00 bitrate=9873.8kbits/s speed=0.33x    frame=  256 fps=9.2 q=33.0 size=   10849kB time=00:00:09.29 bitrate=9563.5kbits/s speed=0.333x    frame=  264 fps=9.3 q=33.0 size=   10849kB time=00:00:09.62 bitrate=9232.7kbits/s speed=0.339x    frame=  271 fps=9.4 q=33.0 size=   10849kB time=00:00:09.91 bitrate=8960.8kbits/s speed=0.343x    frame=  278 fps=9.4 q=33.0 size=   10849kB time=00:00:10.20 bitrate=8705.4kbits/s speed=0.346x    frame=  286 fps=9.5 q=32.0 size=   10849kB time=00:00:10.54 bitrate=8429.6kbits/s speed=0.35x    frame=  292 fps=9.5 q=32.0 size=   10849kB time=00:00:10.79 bitrate=8234.4kbits/s speed=0.351x    frame=  302 fps=9.7 q=32.0 size=   14889kB time=00:00:11.20 bitrate=10881.8kbits/s speed=0.358x    frame=  309 fps=9.7 q=32.0 size=   14889kB time=00:00:11.50 bitrate=10605.5kbits/s speed=0.361x    frame=  317 fps=9.8 q=32.0 size=   14889kB time=00:00:11.83 bitrate=10307.1kbits/s speed=0.365x    frame=  325 fps=9.8 q=31.0 size=   14889kB time=00:00:12.16 bitrate=10024.2kbits/s speed=0.368x    frame=  336 fps= 10 q=31.0 size=   14889kB time=00:00:12.62 bitrate=9660.6kbits/s speed=0.376x    frame=  343 fps= 10 q=31.0 size=   14889kB time=00:00:12.91 bitrate=9442.2kbits/s speed=0.379x    frame=  354 fps= 10 q=30.0 size=   14889kB time=00:00:13.37 bitrate=9118.9kbits/s speed=0.386x    frame=  363 fps= 10 q=30.0 size=   14889kB time=00:00:13.75 bitrate=8870.2kbits/s speed=0.391x    frame=  373 fps= 10 q=30.0 size=   14889kB time=00:00:14.16 bitrate=8609.1kbits/s speed=0.396x    frame=  382 fps= 11 q=29.0 size=   14889kB time=00:00:14.54 bitrate=8387.1kbits/s speed=0.401x    frame=  391 fps= 11 q=29.0 size=   14889kB time=00:00:14.91 bitrate=8176.3kbits/s speed=0.405x    frame=  397 fps= 11 q=29.0 size=   18533kB time=00:00:15.16 bitrate=10009.3kbits/s speed=0.406x    frame=  403 fps= 11 q=29.0 size=   18533kB time=00:00:15.41 bitrate=9847.0kbits/s speed=0.406x    frame=  411 fps= 11 q=29.0 size=   18533kB time=00:00:15.75 bitrate=9638.8kbits/s speed=0.408x    frame=  419 fps= 11 q=28.0 size=   18533kB time=00:00:16.08 bitrate=9439.2kbits/s speed=0.409x    frame=  426 fps= 11 q=29.0 size=   18533kB time=00:00:16.37 bitrate=9270.9kbits/s speed=0.411x    frame=  432 fps= 11 q=29.0 size=   18533kB time=00:00:16.62 bitrate=9131.5kbits/s speed=0.411x    frame=  439 fps= 11 q=29.0 size=   18533kB time=00:00:16.91 bitrate=8973.9kbits/s speed=0.413x    frame=  447 fps= 11 q=29.0 size=   18533kB time=00:00:17.25 bitrate=8800.7kbits/s speed=0.415x    frame=  455 fps= 11 q=29.0 size=   21990kB time=00:00:17.58 bitrate=10244.8kbits/s speed=0.417x    frame=  463 fps= 11 q=29.0 size=   21990kB time=00:00:17.91 bitrate=10053.9kbits/s speed=0.419x    frame=  472 fps= 11 q=29.0 size=   21990kB time=00:00:18.29 bitrate=9847.8kbits/s speed=0.423x    frame=  478 fps= 11 q=29.0 size=   21990kB time=00:00:18.54 bitrate=9715.0kbits/s speed=0.423x    frame=  485 fps= 11 q=29.0 size=   21990kB time=00:00:18.83 bitrate=9564.9kbits/s speed=0.425x    frame=  491 fps= 11 q=29.0 size=   21990kB time=00:00:19.08 bitrate=9439.6kbits/s speed=0.425x    frame=  498 fps= 11 q=29.0 size=   21990kB time=00:00:19.37 bitrate=9297.3kbits/s speed=0.426x    frame=  500 fps= 11 q=-1.0 Lsize=   26955kB time=00:00:20.70 bitrate=10662.9kbits/s speed=0.44x    
video:26950kB audio:0kB subtitle:0kB other streams:0kB global headers:0kB muxing overhead: 0.018172%
bench: utime=141.780s
bench: maxrss=1121296kB
[libx264 @ 0x2c8c1c0] frame I:8     Avg QP:23.30  size:174570
[libx264 @ 0x2c8c1c0] frame P:269   Avg QP:28.66  size: 64293
[libx264 @ 0x2c8c1c0] frame B:223   Avg QP:26.58  size: 39933
[libx264 @ 0x2c8c1c0] consecutive B-frames: 37.0%  8.4%  6.6% 48.0%
[libx264 @ 0x2c8c1c0] mb I  I16..4: 33.3% 55.0% 11.7%
[libx264 @ 0x2c8c1c0] mb P  I16..4: 26.6% 33.9%  0.9%  P16..4: 12.8%  3.3%  0.6%  0.0%  0.0%    skip:22.0%
[libx264 @ 0x2c8c1c0] mb B  I16..4:  5.9%  6.7%  0.7%  B16..8: 20.2%  2.9%  0.1%  direct: 9.9%  skip:53.6%  L0:42.8% L1:50.9% BI: 6.3%
[libx264 @ 0x2c8c1c0] final ratefactor: 25.84
[libx264 @ 0x2c8c1c0] 8x8 transform intra:54.6% inter:73.7%
[libx264 @ 0x2c8c1c0] coded y,uvDC,uvAC intra: 24.7% 23.6% 1.8% inter: 7.3% 7.0% 0.1%
[libx264 @ 0x2c8c1c0] i16 v,h,dc,p: 45% 25% 13% 17%
[libx264 @ 0x2c8c1c0] i8 v,h,dc,ddl,ddr,vr,hd,vl,hu: 19% 26% 31%  4%  4%  4%  5%  3%  4%
[libx264 @ 0x2c8c1c0] i4 v,h,dc,ddl,ddr,vr,hd,vl,hu: 16% 23% 10%  9%  9%  8% 10%  6% 10%
[libx264 @ 0x2c8c1c0] i8c dc,h,v,p: 69% 15% 14%  2%
[libx264 @ 0x2c8c1c0] Weighted P-Frames: Y:0.7% UV:0.0%
[libx264 @ 0x2c8c1c0] ref P L0: 83.9% 16.1%
[libx264 @ 0x2c8c1c0] ref B L0: 89.0% 11.0%
[libx264 @ 0x2c8c1c0] ref B L1: 96.8%  3.2%
[libx264 @ 0x2c8c1c0] kb/s:10597.07
